<svg height="512" viewBox="0 0 512 512" width="512" xmlns="http://www.w3.org/2000/svg"><g id="Fill_out_line" data-name="Fill out line"><rect fill="#eedc9a" height="280" rx="40" width="352" x="24" y="208"/><path d="m376 248v24h-352v-24a40.0017 40.0017 0 0 1 40-40h272a40.0017 40.0017 0 0 1 40 40z" fill="#eebe33"/><path d="m48 320h112v112h-112z" fill="#c4d4e0"/><path d="m456 232h-120l-64 64v-64h-40a32 32 0 0 1 -32-32v-144a32 32 0 0 1 32-32h224a32 32 0 0 1 32 32v144a32 32 0 0 1 -32 32z" fill="#8acce7"/><path d="m336 496h-272a48.05436 48.05436 0 0 1 -48-48v-200a48.05436 48.05436 0 0 1 48-48h112v16h-112a32.036 32.036 0 0 0 -32 32v200a32.036 32.036 0 0 0 32 32h272a32.036 32.036 0 0 0 32-32v-184h16v184a48.05436 48.05436 0 0 1 -48 48z"/><circle cx="56" cy="240" r="8"/><circle cx="80" cy="240" r="8"/><circle cx="104" cy="240" r="8"/><path d="m48 264h200v16h-200z"/><path d="m208 320h32v16h-32z"/><path d="m256 320h64v16h-64z"/><path d="m336 320h16v16h-16z"/><path d="m176 352h48v16h-48z"/><path d="m288 352h64v16h-64z"/><path d="m240 352h32v16h-32z"/><path d="m304 384h48v16h-48z"/><path d="m176 384h64v16h-64z"/><path d="m256 384h32v16h-32z"/><path d="m176 416h48v16h-48z"/><path d="m240 416h80v16h-80z"/><path d="m160 440h-112a7.99977 7.99977 0 0 1 -8-8v-112a7.99977 7.99977 0 0 1 8-8h112a7.99977 7.99977 0 0 1 8 8v112a7.99977 7.99977 0 0 1 -8 8zm-104-16h96v-96h-96z"/><path d="m149.65991 394.34-11.31982 11.32-18.34009-18.35-18.34009 18.35-11.31982-11.32 10.33984-10.34-12.67993-12.69-18.34009 18.35-11.31982-11.32 24-24a8.015 8.015 0 0 1 11.31982 0l18.34009 18.34 2.34009-2.34a8.015 8.015 0 0 1 11.31982 0z"/><path d="m271.99805 304a7.99971 7.99971 0 0 1 -7.99805-8v-56h-32a40.04521 40.04521 0 0 1 -40-40v-144a40.04521 40.04521 0 0 1 40-40h224a40.04521 40.04521 0 0 1 40 40v144a40.04521 40.04521 0 0 1 -40 40h-116.68652l-61.65674 61.65674a7.99905 7.99905 0 0 1 -5.65869 2.34326zm-39.99805-272a24.02687 24.02687 0 0 0 -24 24v144a24.02687 24.02687 0 0 0 24 24h40a7.99977 7.99977 0 0 1 8 8v44.68652l50.34326-50.34326a7.99877 7.99877 0 0 1 5.65674-2.34326h120a24.02687 24.02687 0 0 0 24-24v-144a24.02687 24.02687 0 0 0 -24-24z"/><path d="m413.65674 181.65674-11.31348-11.31348 42.34326-42.34326-42.34326-42.34326 11.31348-11.31348 48 48a7.99915 7.99915 0 0 1 0 11.31348z"/><path d="m265.209 120h157.582v16h-157.582z" transform="matrix(.406 -.914 .914 .406 87.324 390.369)"/><path d="m274.34326 181.65674-48-48a7.99915 7.99915 0 0 1 0-11.31348l48-48 11.31348 11.31348-42.34326 42.34326 42.34326 42.34326z"/></g></svg>